<?xml version="1.0" encoding="utf-8"?>
<!-- Generator: Adobe Illustrator 22.1.0, SVG Export Plug-In . SVG Version: 6.00 Build 0)  -->
<svg version="1.1" id="Layer_1" xmlns="http://www.w3.org/2000/svg" xmlns:xlink="http://www.w3.org/1999/xlink" x="0px" y="0px"
	 viewBox="0 0 975.9 152.3" style="enable-background:new 0 0 975.9 152.3;" xml:space="preserve">
<style type="text/css">
	.st0{fill:#262626;}
	.st1{opacity:0.4;fill:url(#SVGID_1_);enable-background:new    ;}
	.st2{opacity:0.4;fill:url(#SVGID_2_);enable-background:new    ;}
	.st3{opacity:0.4;fill:url(#SVGID_3_);enable-background:new    ;}
	.st4{opacity:0.4;fill:url(#SVGID_4_);enable-background:new    ;}
	.st5{opacity:0.4;fill:url(#SVGID_5_);enable-background:new    ;}
	.st6{opacity:0.4;fill:url(#SVGID_6_);enable-background:new    ;}
</style>
<g id="logo">
	<g id="title">
		<g id="path69443">
			<path class="st0" d="M88.7,2.1h42.9l-3,31.7H86L75.6,150H32.4L42.8,33.8H0L3,2.1H88.7L88.7,2.1z"/>
			
				<linearGradient id="SVGID_1_" gradientUnits="userSpaceOnUse" x1="379.6818" y1="-527.8112" x2="379.6818" y2="-609.063" gradientTransform="matrix(1.43 0 0 -1.43 -483.87 -720.96)">
				<stop  offset="6.000000e-02" style="stop-color:#000000;stop-opacity:0.8"/>
				<stop  offset="0.26" style="stop-color:#000000;stop-opacity:0"/>
			</linearGradient>
			<path class="st1" d="M42.8,33.8h42.9L75.3,150H32.4L42.8,33.8z"/>
		</g>
		<g id="path69445">
			<path class="st0" d="M161.9,2.1h42.9l-13.4,148h-42.9L161.9,2.1z"/>
		</g>
		<g id="path69447">
			<path class="st0" d="M318.3,0c17,0,31.5,5.3,42.6,14.1l-3.6,40.2c-11.6-7.6-27.4-15.5-42.9-15.5h-1.2
				c-25.3,0.6-39.6,21.1-39.6,41.7v0.9c0.3,10.3,6.3,32.6,34.2,32.6c14.9,0,32.1-7.6,45.5-15.3l-3.6,39.9
				c-13.2,9.1-28.9,14-44.9,13.8c-44.9,0-73.5-30.8-72.9-70.1v-0.3c0-1.9,0.1-3.7,0.3-5.6C236.1,34,271.3,0,318.3,0z"/>
			
				<linearGradient id="SVGID_2_" gradientUnits="userSpaceOnUse" x1="451.6573" y1="-529.439" x2="451.6573" y2="-560.659" gradientTransform="matrix(1.43 0 0 -1.43 -372.97 -720.99)">
				<stop  offset="0.14" style="stop-color:#000000;stop-opacity:0.8"/>
				<stop  offset="0.48" style="stop-color:#000000;stop-opacity:0.42"/>
				<stop  offset="0.98" style="stop-color:#000000;stop-opacity:0"/>
			</linearGradient>
			<path class="st2" d="M273.9,80.1V81l-41.7,0.9l0,0v-0.3l0,0c3-30.2,28.3-56,81.2-42.8l0,0C287.9,39.3,273.9,59.9,273.9,80.1z"/>
		</g>
		<g id="path69449">
			<path class="st0" d="M472.6,0c17,0,31.5,5.3,42.6,14.1l-3.6,40.2c-11.6-7.6-27.4-15.5-42.9-15.5h-1.2
				C442.3,39.3,428,59.9,428,80.4v0.9c0.3,10.3,6.3,32.6,34.2,32.6c14.9,0,32.1-7.6,45.5-15.3l-3.6,39.9
				c-13.2,9.1-28.9,14-44.9,13.8c-44.9,0-73.5-30.8-72.9-70.1v-0.3c0-1.9,0.1-3.7,0.3-5.6C390.5,34,425.6,0,472.6,0z"/>
			
				<linearGradient id="SVGID_3_" gradientUnits="userSpaceOnUse" x1="507.7203" y1="-529.439" x2="507.7203" y2="-560.659" gradientTransform="matrix(1.43 0 0 -1.43 -298.81 -720.99)">
				<stop  offset="0.14" style="stop-color:#000000;stop-opacity:0.8"/>
				<stop  offset="0.48" style="stop-color:#000000;stop-opacity:0.42"/>
				<stop  offset="0.98" style="stop-color:#000000;stop-opacity:0"/>
			</linearGradient>
			<path class="st3" d="M428.3,80.1V81l-41.7,0.9l0,0v-0.3l0,0c3-30.2,28.3-56,81.2-42.8l0,0C442.3,39.3,428.3,59.9,428.3,80.1z"/>
		</g>
		<g id="path69451">
			<path class="st0" d="M683.7,2.1l-50.3,72.5L670,150h-49.1l-15.8-33.8l-1.8-4.1l-14-29.9l-6.2,67.8h-42.9L553.7,2.1h42.8l-6,64.3
				l22.9-33.2l21.4-31.1H683.7z"/>
			
				<linearGradient id="SVGID_4_" gradientUnits="userSpaceOnUse" x1="566.8264" y1="-557.3532" x2="632.9873" y2="-557.3532" gradientTransform="matrix(1.43 0 0 -1.43 -221.39 -720.96)">
				<stop  offset="9.000000e-02" style="stop-color:#000000;stop-opacity:0.8"/>
				<stop  offset="0.35" style="stop-color:#000000;stop-opacity:0"/>
			</linearGradient>
			<path class="st4" d="M633.7,74.6l36.6,75.4h-49.4l-15.8-33.8l-1.8-4.1l-14-29.9l1.5-15.8l22.9-33.1l21.4-31.1H684L633.7,74.6z"/>
		</g>
		<g id="path69453">
			<path class="st0" d="M757.6,2.1h64l-3,31.7h-64l-2.4,26.4h42.6l-3,31.7h-42.2l-2.4,26.4h64.6l-3,31.7H701.3l10.4-116.2l2.7-31.7
				C714.4,2.1,757.6,2.1,757.6,2.1z"/>
			
				<linearGradient id="SVGID_5_" gradientUnits="userSpaceOnUse" x1="613.6678" y1="-527.8112" x2="613.6678" y2="-609.063" gradientTransform="matrix(1.43 0 0 -1.43 -149.59 -720.96)">
				<stop  offset="6.000000e-02" style="stop-color:#000000;stop-opacity:0.8"/>
				<stop  offset="0.21" style="stop-color:#000000;stop-opacity:0"/>
			</linearGradient>
			<path class="st5" d="M711.7,33.8h42.8L744.2,150h-42.9L711.7,33.8z"/>
		</g>
		<g id="path69455">
			<path class="st0" d="M933.1,2.1h42.8l-3,31.7h-42.5L920,150h-43.2l10.4-116.2h-42.9l3-31.7L933.1,2.1L933.1,2.1z"/>
			
				<linearGradient id="SVGID_6_" gradientUnits="userSpaceOnUse" x1="686.4161" y1="-527.8112" x2="686.4161" y2="-609.063" gradientTransform="matrix(1.43 0 0 -1.43 -78.13 -720.96)">
				<stop  offset="6.000000e-02" style="stop-color:#000000;stop-opacity:0.8"/>
				<stop  offset="0.26" style="stop-color:#000000;stop-opacity:0"/>
			</linearGradient>
			<path class="st6" d="M887.2,33.8h42.8L919.7,150h-42.8L887.2,33.8z"/>
		</g>
	</g>
</g>
</svg>
