<svg xmlns="http://www.w3.org/2000/svg" xmlns:xlink="http://www.w3.org/1999/xlink" viewBox="0 0 975.91 152.31"><defs><style>.cls-1{fill:#fff;}.cls-2,.cls-3,.cls-4,.cls-5,.cls-6,.cls-7{opacity:0.4;isolation:isolate;}.cls-2{fill:url(#linear-gradient);}.cls-3{fill:url(#linear-gradient-2);}.cls-4{fill:url(#linear-gradient-3);}.cls-5{fill:url(#linear-gradient-4);}.cls-6{fill:url(#linear-gradient-5);}.cls-7{fill:url(#linear-gradient-6);}</style><linearGradient id="linear-gradient" x1="308.12" y1="733.83" x2="308.12" y2="815.1" gradientTransform="translate(-381.53 -1015.57) scale(1.43)" gradientUnits="userSpaceOnUse"><stop offset="0.06" stop-opacity="0.8"/><stop offset="0.26" stop-opacity="0"/></linearGradient><linearGradient id="linear-gradient-2" x1="380.09" y1="735.46" x2="380.09" y2="766.68" gradientTransform="translate(-270.63 -1015.6) scale(1.43)" gradientUnits="userSpaceOnUse"><stop offset="0.14" stop-opacity="0.8"/><stop offset="0.48" stop-opacity="0.42"/><stop offset="0.98" stop-opacity="0"/></linearGradient><linearGradient id="linear-gradient-3" x1="436.16" y1="735.46" x2="436.16" y2="766.68" gradientTransform="translate(-196.47 -1015.6) scale(1.43)" xlink:href="#linear-gradient-2"/><linearGradient id="linear-gradient-4" x1="495.26" y1="763.38" x2="561.44" y2="763.38" gradientTransform="translate(-119.05 -1015.57) scale(1.43)" gradientUnits="userSpaceOnUse"><stop offset="0.09" stop-opacity="0.8"/><stop offset="0.35" stop-opacity="0"/></linearGradient><linearGradient id="linear-gradient-5" x1="542.1" y1="733.83" x2="542.1" y2="815.1" gradientTransform="translate(-47.25 -1015.57) scale(1.43)" gradientUnits="userSpaceOnUse"><stop offset="0.06" stop-opacity="0.8"/><stop offset="0.21" stop-opacity="0"/></linearGradient><linearGradient id="linear-gradient-6" x1="614.85" y1="733.83" x2="614.85" y2="815.1" gradientTransform="translate(24.21 -1015.57) scale(1.43)" xlink:href="#linear-gradient"/></defs><title>Only Logo</title><g id="logo"><g id="title"><g id="path69443"><path class="cls-1" d="M88.68,2.11h42.86l-3,31.7H86L75.59,150H32.44L42.85,33.81H0L3,2.11h85.7Z"/><path class="cls-2" d="M42.85,33.81H85.71L75.29,150H32.44Z"/></g><g id="path69445"><path class="cls-1" d="M161.88,2.11h42.87l-13.44,148H148.45Z"/></g><g id="path69447"><path class="cls-1" d="M318.28,0c17,0,31.55,5.28,42.56,14.09l-3.57,40.2c-11.61-7.63-27.38-15.55-42.86-15.55h-1.19c-25.29.58-39.58,21.13-39.58,41.67v.88c.3,10.27,6.25,32.57,34.23,32.57,14.88,0,32.14-7.63,45.53-15.26l-3.57,39.92a77.54,77.54,0,0,1-44.94,13.79c-44.94,0-73.5-30.82-72.91-70.14v-.29a34.8,34.8,0,0,1,.3-5.58C236.15,34,271.26,0,318.28,0Z"/><path class="cls-3" d="M273.94,80.12V81l-41.66.88h0v-.3h0c3-30.22,28.27-56,81.24-42.84h0C287.93,39.32,273.94,59.87,273.94,80.12Z"/></g><g id="path69449"><path class="cls-1" d="M472.61,0c17,0,31.55,5.28,42.56,14.09l-3.57,40.2C500,46.66,484.22,38.74,468.74,38.74h-1.19C442.26,39.32,428,59.87,428,80.41v.88c.3,10.27,6.25,32.57,34.23,32.57,14.88,0,32.14-7.63,45.53-15.26l-3.57,39.92a77.54,77.54,0,0,1-44.94,13.79c-44.94,0-73.5-30.82-72.91-70.14v-.29a34.8,34.8,0,0,1,.3-5.58C390.48,34,425.59,0,472.61,0Z"/><path class="cls-4" d="M428.27,80.12V81l-41.66.88h0v-.3h0c3-30.22,28.27-56,81.24-42.84h0C442.26,39.32,428.27,59.87,428.27,80.12Z"/></g><g id="path69451"><path class="cls-1" d="M683.74,2.11,633.44,74.6,670.05,150H620.94l-15.77-33.75-1.78-4.11-14-29.93L583.15,150H540.3L553.69,2.11h42.85l-5.95,64.27L613.5,33.22,634.93,2.11Z"/><path class="cls-5" d="M633.74,74.6,670.34,150h-49.4l-15.77-33.75-1.78-4.11-14-29.93,1.49-15.85L613.8,33.22,635.23,2.11H684Z"/></g><g id="path69453"><path class="cls-1" d="M757.57,2.11h64l-3,31.7h-64l-2.38,26.41h42.56l-3,31.69H749.53l-2.38,26.41h64.58l-3,31.7H701.32L711.74,33.81l2.68-31.7h43.15Z"/><path class="cls-6" d="M711.74,33.81h42.85L744.18,150H701.32Z"/></g><g id="path69455"><path class="cls-1" d="M933.06,2.11h42.85l-3,31.7H930.38L920,150H876.81L887.23,33.81H844.37l3-31.7h85.71Z"/><path class="cls-7" d="M887.23,33.81h42.85L919.66,150H876.81Z"/></g></g></g></svg>